# AST/ASF file generated using VICON BodyLanguage
# -----------------------------------------------
:version 1.10
:name VICON
:units
  mass 1.0
  length 0.45
  angle deg
:documentation
   .ast/.asf automatically generated from VICON data using
   VICON BodyBuilder and BodyLanguage model FoxedUp or BRILLIANT.MOD
:root
   order TX TY TZ RX RY RZ
   axis XYZ
   position 0 0 0  
   orientation 0 0 0 
:bonedata
  begin
     id 1 
     name lhipjoint
     direction 0.558404 -0.748506 0.357664 
     length 2.4234 
     axis 0 0 0  XYZ
  end
  begin
     id 2 
     name lfemur
     direction 0.34202 -0.939693 0  
     length 7.14567  
     axis 0 0 20  XYZ
    dof rx ry rz
    limits (-160.0 20.0)
           (-70.0 70.0)
           (-60.0 70.0)
  end
  begin
     id 3 
     name ltibia
     direction 0.34202 -0.939693 0   
     length 8.13956   
     axis 0 0 20   XYZ
    dof rx
    limits (-10.0 170.0)
  end
  begin
     id 4 
     name lfoot
     direction 0.0791314 -0.217412 0.972867   
     length 2.00134   
     axis -90 7.62852e-016 20   XYZ
    dof rx rz
    limits (-45.0 90.0)
           (-70.0 20.0)
  end
  begin
     id 5 
     name ltoes
     direction 1.53547e-011 -4.21922e-011 1   
     length 1.00735   
     axis -90 7.62852e-016 20   XYZ
    dof rx
    limits (-90.0 20.0)
  end
  begin
     id 6 
     name rhipjoint
     direction -0.496392 -0.78327 0.374276   
     length 2.31584  
     axis 0 0 0  XYZ 
  end
  begin
     id 7 
     name rfemur
     direction -0.34202 -0.939693 0   
     length 7.47417   
     axis 0 0 -20   XYZ
    dof rx ry rz
    limits (-160.0 20.0)
           (-70.0 70.0)
           (-70.0 60.0)
  end
  begin
     id 8 
     name rtibia
     direction -0.34202 -0.939693 0   
     length 7.69071   
     axis 0 0 -20   XYZ
    dof rx
    limits (-10.0 170.0)
 end
 begin
     id 9 
     name rfoot
     direction -0.103069 -0.28318 0.953512   
     length 2.16135  
     axis -90 -7.62852e-016 -20   XYZ
    dof rx rz
    limits (-45.0 90.0)
           (-20.0 70.0)
  end
  begin
     id 10 
     name rtoes
     direction -1.53581e-011 -4.21904e-011 1   
     length 1.07867   
     axis -90 -7.62852e-016 -20   XYZ
    dof rx
    limits (-90.0 20.0)
  end
  begin
     id 11 
     name lowerback
     direction -0.0258961 0.994776 -0.0987407   
     length 2.19412   
     axis 0 0 0   XYZ
    dof rx ry rz
    limits (-20.0 45.0)
           (-30.0 30.0)
           (-30.0 30.0)
  end
  begin
     id 12 
     name upperback
     direction 0.0402454 0.999185 0.00320666   
     length 2.18445   
     axis 0 0 0   XYZ
    dof rx ry rz
    limits (-20.0 45.0)
           (-30.0 30.0)
           (-30.0 30.0)
  end
  begin
     id 13 
     name thorax
     direction 0.0519376 0.997415 0.0496558   
     length 2.21487   
     axis 0 0 0   XYZ
    dof rx ry rz
    limits (-20.0 45.0)
           (-30.0 30.0)
           (-30.0 30.0)
  end
  begin
     id 14 
     name lowerneck
     direction -0.0921276 0.983211 0.157506   
     length 1.61201   
     axis 0 0 0   XYZ
    dof rx ry rz
    limits (-20.0 45.0)
           (-30.0 30.0)
           (-30.0 30.0)
  end
  begin
     id 15 
     name upperneck
     direction 0.0820814 0.98162 -0.172292   
     length 1.65275   
     axis 0 0 0   XYZ
    dof rx ry rz
    limits (-20.0 45.0)
           (-30.0 30.0)
           (-30.0 30.0)
  end
  begin
     id 16
     name head
     direction 0.0336554 0.996413 -0.0776455  
     length 1.66415  
     axis 0 0 0   XYZ
    dof rx ry rz
    limits (-20.0 45.0)
           (-30.0 30.0)
           (-30.0 30.0)
  end
  begin
     id 17 
     name lclavicle
     direction 0.94696 0.284418 -0.149576  
     length 3.41447  
     axis 0 0 0   XYZ
    dof ry rz
    limits (-20.0 10.0)
           (0.0 20.0)
  end
  begin
     id 18 
     name lhumerus
     direction 1 -0.000130264 -9.81312e-005   
     length 5.19964   
     axis 180 -30 -90   XYZ
    dof rx ry rz
    limits (-60.0 90.0)
           (-90.0 90.0)
           (-90.0 90.0)
  end
  begin
     id 19
     name lradius
     direction 1 -4.48961e-011 1.43854e-026   
     length 3.32189   
     axis 180 -30 -90   XYZ
    dof rx
    limits (-10.0 170.0)
  end
  begin
     id 20
     name lwrist
     direction 1 -4.48958e-011 3.1502e-026   
     length 1.66095   
     axis -1.97692e-014 90 90   XYZ
    dof ry
    limits (-180.0 0.0)
 end
  begin
     id 21 
     name lhand
     direction 1 -4.48927e-011 6.3004e-026   
     length 0.645616   
     axis -4.02019e-014 90 90   XYZ
    dof rx rz
    limits (-90.0 90.0)
           (-45.0 45.0)
  end
  begin
     id 22 
     name lfingers
     direction 1 -4.4904e-011 1.26008e-025   
     length 0.520512   
     axis -8.04039e-014 90 90   XYZ
    dof rx
    limits (0.0 90.0)
  end
  begin
     id 23
     name lthumb
     direction 0.707107 -6.34947e-011 0.707107   
     length 0.747354   
     axis -90 45 2.85299e-015   XYZ
    dof rx rz
    limits (-45.0 45.0)
           (-45.0 45.0)
  end
  begin
     id 24 
     name rclavicle
     direction -0.909391 0.383475 -0.161107   
     length 3.25176  
     axis 0 0 0   XYZ 
    dof ry rz
    limits (-10.0 20.0)
           (-20.0 0.0)
  end
  begin
     id 25 
     name rhumerus
     direction -1 -4.48965e-011 -1.81384e-027  
     length 5.6595   
     axis 180 30 90   XYZ
    dof rx ry rz
    limits (-90.0 60.0)
           (-90.0 90.0)
           (-90.0 90.0)
  end
  begin
     id 26 
     name rradius
     direction -1 -4.48996e-011 -8.09397e-027   
     length 3.37604   
     axis 180 30 90   XYZ
    dof rx
    limits (-10.0 170.0)
  end
  begin
     id 27 
     name rwrist
     direction -1 -4.48927e-011 -1.56669e-026   
     length 1.68802   
     axis 1.21142e-014 -90 -90   XYZ
    dof ry
    limits (-180.0 0.0)
  end
  begin
     id 28
     name rhand
     direction -1 -4.48912e-011 -3.13339e-026   
     length 0.824702   
     axis 1.99937e-014 -90 -90   XYZ
    dof rx rz
    limits (-90.0 90.0)
           (-45.0 45.0)
  end
  begin
     id 29
     name rfingers
     direction -1 -4.49011e-011 -6.26677e-026   
     length 0.664896   
     axis 3.99874e-014 -90 -90   XYZ
    dof rx
    limits (0.0 90.0)
  end
  begin
     id 30
     name rthumb
     direction -0.707107 -6.34931e-011 0.707107   
     length 0.954662   
     axis -90 -45 -2.85299e-015   XYZ
    dof rx rz
    limits (-45.0 45.0)
           (-45.0 45.0)
  end
:hierarchy
  begin
    root lhipjoint rhipjoint lowerback
    lhipjoint lfemur
    lfemur ltibia
    ltibia lfoot
    lfoot ltoes
    rhipjoint rfemur
    rfemur rtibia
    rtibia rfoot
    rfoot rtoes
    lowerback upperback
    upperback thorax
    thorax lowerneck lclavicle rclavicle
    lowerneck upperneck
    upperneck head
    lclavicle lhumerus
    lhumerus lradius
    lradius lwrist
    lwrist lhand lthumb
    lhand lfingers
    rclavicle rhumerus
    rhumerus rradius
    rradius rwrist
    rwrist rhand rthumb
    rhand rfingers
  end

#!OML:ASF F:\VICON\USERDATA\INSTALL\rory3\rory3.ASF
:FULLY-SPECIFIED
:DEGREES
390
root 10.5134 17.2902 14.3715 -3.58437 11.7671 -1.04507
lowerback 5.4289 -1.66822 -3.09104
upperback -1.2669 -2.21393 5.56611
thorax -4.03282 -0.954291 7.79273
lowerneck -7.90557 -7.57452 -15.3741
upperneck 19.8131 -10.0372 9.46498
head 8.74845 -5.06017 4.67901
rclavicle -7.95139e-016 -2.54444e-014
rhumerus -5.33318 -15.5029 -55.7716
rradius 49.4258
rwrist -25.836
rhand -18.0534 17.7094
rfingers 7.12502
rthumb 8.21877 -12.1108
lclavicle -7.95139e-016 -2.54444e-014
lhumerus -4.3309 2.49765 83.0294
lradius 38.5219
lwrist -20.7169
lhand -10.0627 34.9714
lfingers 7.12502
lthumb 15.9233 64.3368
rfemur -11.0977 8.63373 15.8561
rtibia 38.9338
rfoot -19.5788 -9.57208
rtoes 12.254
lfemur -16.467 -3.37529 -8.98545
ltibia 35.6941
lfoot -10.4751 10.8917
ltoes -6.87919
391
root 10.6119 17.2752 14.4268 -3.57699 11.4668 -1.32678
lowerback 5.44892 -1.60266 -2.76486
upperback -1.39106 -2.09655 5.61269
thorax -4.20194 -0.894298 7.65017
lowerneck -8.01558 -7.48067 -15.2929
upperneck 19.9694 -9.91192 9.45974
head 8.79916 -4.99439 4.67911
rclavicle -1.73937e-014 -4.77083e-015
rhumerus -3.94716 -15.4788 -55.6536
rradius 49.8514
rwrist -25.9977
rhand -18.5022 17.7769
rfingers 7.12502
rthumb 7.7856 -12.0598
lclavicle -1.73937e-014 -4.77083e-015
lhumerus -5.42826 8.56574 82.1282
lradius 37.2306
lwrist -21.119
lhand -11.8738 34.4721
lfingers 7.12502
lthumb 14.1786 63.9682
rfemur -10.8743 9.42553 16.0086
rtibia 38.8248
rfoot -19.7501 -10.1001
rtoes 11.9688
lfemur -16.3798 -1.62792 -8.86619
ltibia 36.2127
lfoot -11.2612 9.18107
ltoes -6.26983
392
root 10.7186 17.2572 14.4865 -3.69233 11.3086 -1.63478
lowerback 5.36109 -1.58555 -2.29626
upperback -1.34909 -2.04021 5.62893
thorax -4.1313 -0.880876 7.38518
lowerneck -8.2414 -7.48793 -15.3493
upperneck 20.0987 -9.92309 9.61893
head 8.89751 -4.98444 4.73737
rclavicle -5.46658e-015 -4.77083e-014
rhumerus -2.83674 -15.3395 -55.4796
rradius 50.7175
rwrist -26.174
rhand -18.8057 17.6875
rfingers 7.12502
rthumb 7.49269 -12.1598
lclavicle -5.46658e-015 -4.77083e-014
lhumerus -5.74734 15.2404 81.2291
lradius 35.5135
lwrist -21.8052
lhand -14.1513 32.8524
lfingers 7.12502
lthumb 11.9833 62.4894
rfemur -10.4346 9.93766 16.1601
rtibia 38.7048
rfoot -19.9679 -10.4555
rtoes 12.1375
lfemur -16.2426 -0.0205774 -8.80087
ltibia 36.7582
lfoot -11.8715 7.67689
ltoes -7.31348
393
root 10.8457 17.2458 14.5601 -3.8102 11.5139 -1.13448
lowerback 4.99096 -1.56866 -2.53681
upperback -1.15033 -2.05153 5.38814
thorax -3.7122 -0.901144 7.24111
lowerneck -7.91602 -7.58383 -15.2963
upperneck 19.7758 -10.1311 9.79152
head 8.76147 -5.06979 4.76837
rclavicle 2.62396e-014 -1.74931e-014
rhumerus -2.14221 -15.5366 -55.1082
rradius 51.8169
rwrist -26.0832
rhand -18.8645 17.8019
rfingers 7.12502
rthumb 7.43595 -12.0474
lclavicle 2.62396e-014 -1.74931e-014
lhumerus -5.46212 22.8036 80.5673
lradius 33.3917
lwrist -23.5665
lhand -14.051 40.7106
lfingers 7.12502
lthumb 12.0799 70.3419
rfemur -9.62943 9.68317 15.2868
rtibia 38.598
rfoot -20.2936 -10.3987
rtoes 11.9727
lfemur -15.949 0.912055 -9.79611
ltibia 37.1843
lfoot -12.2494 7.04585
ltoes -9.90078
394
root 10.9645 17.2415 14.6408 -3.8981 11.6247 -0.505895
lowerback 4.93593 -1.49731 -2.97651
upperback -1.07012 -1.99585 5.15446
thorax -3.59881 -0.871799 7.23525
lowerneck -7.99117 -7.77302 -15.2201
upperneck 19.8012 -10.389 9.73665
head 8.81302 -5.18769 4.70003
rclavicle 6.95746e-015 2.38542e-014
rhumerus -1.53938 -15.7315 -54.6994
rradius 52.8768
rwrist -26.2253
rhand -18.8949 17.8777
rfingers 7.12502
rthumb 7.40665 -11.9726
lclavicle 6.95746e-015 2.38542e-014
lhumerus -5.97584 29.6753 79.5452
lradius 32.2769
lwrist -24.8352
lhand -15.1231 42.4637
lfingers 7.12502
lthumb 11.046 72.153
rfemur -8.8909 9.72055 14.3402
rtibia 38.4965
rfoot -20.4827 -10.5269
rtoes 11.3092
lfemur -15.5614 1.4623 -10.8849
ltibia 37.446
lfoot -12.5538 6.9079
ltoes -11.0232
395
root 11.0796 17.2444 14.7142 -3.84063 11.8144 0.0513437
lowerback 4.97048 -1.45346 -3.35803
upperback -1.13592 -1.96945 4.92548
thorax -3.68632 -0.848591 7.21205
lowerneck -8.3731 -7.89752 -15.1404
upperneck 20.1536 -10.5483 9.74051
head 9.02193 -5.24671 4.6581
rclavicle 2.26615e-014 -2.54444e-014
rhumerus -1.28414 -15.6528 -54.2306
rradius 54.2354
rwrist -26.7254
rhand -18.9859 17.8284
rfingers 7.12502
rthumb 7.31877 -12.0251
lclavicle 2.26615e-014 -2.54444e-014
lhumerus -7.2473 35.3563 77.9597
lradius 32.0109
lwrist -25.2273
lhand -15.2878 49.3082
lfingers 7.12502
lthumb 10.8872 79.0059
rfemur -8.43694 9.85277 13.455
rtibia 38.3917
rfoot -20.573 -10.7296
rtoes 11.2998
lfemur -15.319 1.70485 -11.8948
ltibia 37.6053
lfoot -12.877 6.80009
ltoes -10.0626
396
root 11.2008 17.2464 14.7749 -3.67257 12.1816 0.624724
lowerback 4.74725 -1.47238 -3.72637
upperback -1.04604 -2.02482 4.71908
thorax -3.45312 -0.880862 7.19493
lowerneck -8.68245 -8.00934 -15.128
upperneck 20.1501 -10.6808 9.82787
head 9.10074 -5.28978 4.65806
rclavicle 2.5842e-015 7.95139e-015
rhumerus -0.941019 -15.6127 -53.726
rradius 55.7886
rwrist -27.3738
rhand -19.0442 17.7759
rfingers 7.12502
rthumb 7.26249 -12.0795
lclavicle 2.5842e-015 7.95139e-015
lhumerus -8.36495 40.1047 76.4554
lradius 31.8417
lwrist -23.9106
lhand -20.572 50.9504
lfingers 7.12502
lthumb 5.78758 80.8513
rfemur -8.03937 9.74449 12.4898
rtibia 38.2434
rfoot -20.6367 -10.8933
rtoes 11.3486
lfemur -15.2309 1.7336 -12.9767
ltibia 37.7406
lfoot -13.1459 6.68017
ltoes -8.81858
397
root 11.3135 17.2444 14.8262 -3.60396 12.3508 0.795269
lowerback 4.93393 -1.41592 -3.7206
upperback -1.23178 -1.95229 4.61739
thorax -3.76699 -0.830476 7.09154
lowerneck -8.40023 -8.111 -15.2558
upperneck 20.0997 -10.8641 9.92763
head 9.07069 -5.38461 4.69729
rclavicle 2.70347e-014 1.74931e-014
rhumerus -1.05117 -15.4616 -53.134
rradius 57.3217
rwrist -28.05
rhand -18.9857 17.5835
rfingers 7.12502
rthumb 7.31891 -12.2699
lclavicle 2.70347e-014 1.74931e-014
lhumerus -10.278 43.3926 74.402
lradius 31.4413
lwrist -19.8278
lhand -23.249 80.7133
lfingers 7.12502
lthumb 3.20266 249.331
rfemur -7.66526 10.0573 12.0876
rtibia 38.0782
rfoot -20.6474 -11.284
rtoes 11.2962
lfemur -15.1673 1.80522 -13.5333
ltibia 37.9191
lfoot -13.4009 6.53446
ltoes -7.99643
398
root 11.4362 17.239 14.9041 -3.78758 12.8411 1.11594
lowerback 5.29289 -1.43664 -3.78912
upperback -1.49 -1.99455 4.42969
thorax -4.23806 -0.829824 6.95716
lowerneck -8.1145 -8.1869 -15.5948
upperneck 20.3426 -11.0532 10.2562
head 9.16902 -5.48009 4.85466
rclavicle -1.28216e-014 0
rhumerus -1.61927 -15.2213 -52.4699
rradius 58.9884
rwrist -28.5596
rhand -18.9612 17.3476
rfingers 7.12502
rthumb 7.34259 -12.505
lclavicle -1.28216e-014 0
lhumerus -13.0134 48.5406 71.1408
lradius 30.826
lwrist -20.6041
lhand -21.5275 89.7062
lfingers 7.12502
lthumb 4.86501 240.37
rfemur -6.7146 9.96312 11.5023
rtibia 37.8818
rfoot -20.9773 -11.5561
rtoes 11.513
lfemur -14.6436 1.53805 -14.3031
ltibia 38.0743
lfoot -13.8575 6.27097
ltoes -7.83506
399
root 11.548 17.2343 14.9728 -3.87626 13.187 1.30389
lowerback 5.35889 -1.38555 -3.91951
upperback -1.48674 -1.93996 4.35402
thorax -4.27864 -0.798792 6.94979
lowerneck -8.35229 -8.44744 -15.7622
upperneck 20.4574 -11.3892 10.3518
head 9.31992 -5.63319 4.86011
rclavicle 1.2921e-014 1.27222e-014
rhumerus -1.96297 -15.2099 -51.7617
rradius 60.7564
rwrist -29.0728
rhand -19.0982 17.3463
rfingers 7.12502
rthumb 7.21038 -12.5108
lclavicle 1.2921e-014 1.27222e-014
lhumerus -15.4192 52.4186 68.1385
lradius 30.493
lwrist -19.9763
lhand -22.2153 89.2161
lfingers 7.12502
lthumb 4.20085 240.846
rfemur -5.97021 10.2449 11.189
rtibia 37.7554
rfoot -21.1944 -12.2818
rtoes 11.0761
lfemur -14.1931 1.16504 -14.8872
ltibia 38.1355
lfoot -14.2365 6.24163
ltoes -8.33796
400
root 11.6542 17.2358 15.0395 -3.83841 13.4819 1.65993
lowerback 5.17779 -1.26693 -4.29996
upperback -1.38973 -1.80992 4.23595
thorax -4.08675 -0.734913 7.02221
lowerneck -8.34344 -8.78893 -15.5985
upperneck 20.2174 -11.8149 10.0605
head 9.26934 -5.8435 4.66557
rclavicle -1.19271e-014 -2.54444e-014
rhumerus -2.36362 -15.3845 -51.0132
rradius 62.5295
rwrist -29.6626
rhand -19.2516 17.4921
rfingers 7.12502
rthumb 7.06229 -12.37
lclavicle -1.19271e-014 -2.54444e-014
lhumerus -17.1661 52.6076 66.2203
lradius 30.7051
lwrist -14.7624
lhand -25.9064 86.5352
lfingers 7.12502
lthumb 0.636121 243.486
rfemur -5.44656 10.5904 10.733
rtibia 37.7453
rfoot -20.8919 -13.0948
rtoes 10.059
lfemur -13.7833 0.748478 -15.6489
ltibia 38.0323
lfoot -14.5637 6.37351
ltoes -8.6783
401
root 11.7611 17.2411 15.1071 -3.7423 13.9133 2.2957
lowerback 5.19529 -1.15289 -4.87951
upperback -1.54541 -1.70883 3.96076
thorax -4.2684 -0.662368 7.05982
lowerneck -7.67435 -8.95984 -15.6281
upperneck 19.9729 -12.1577 10.1624
head 9.11884 -6.01772 4.68075
rclavicle -2.60408e-014 1.59028e-015
rhumerus -3.27911 -15.3869 -50.2527
rradius 64.3641
rwrist -30.1094
rhand -19.2437 17.5005
rfingers 7.12502
rthumb 7.06987 -12.3614
lclavicle -2.60408e-014 1.59028e-015
lhumerus -18.9803 51.6903 64.3876
lradius 31.2987
lwrist -9.19899
lhand -28.6174 82.7747
lfingers 7.12502
lthumb -1.98223 247.255
rfemur -4.96921 10.7871 9.96995
rtibia 37.9007
rfoot -20.6132 -13.9317
rtoes 9.26576
lfemur -13.3462 0.263719 -16.7306
ltibia 37.8438
lfoot -14.9414 6.41793
ltoes -8.06336
402
root 11.8721 17.2437 15.1718 -3.65681 14.2748 2.79722
lowerback 5.32803 -1.02458 -5.11261
upperback -1.7609 -1.57451 3.59055
thorax -4.59522 -0.576104 6.79802
lowerneck -7.09992 -9.06523 -15.7753
upperneck 19.9062 -12.4901 10.709
head 9.08363 -6.15628 4.87223
rclavicle 4.14466e-014 -9.54166e-015
rhumerus -4.49811 -15.3519 -49.6151
rradius 66.3267
rwrist -30.3193
rhand -19.4354 17.4585
rfingers 7.12502
rthumb 6.88488 -12.4096
lclavicle 4.14466e-014 -9.54166e-015
lhumerus -21.2697 51.971 61.6219
lradius 31.1091
lwrist -6.59483
lhand -29.6052 73.0805
lfingers 7.12502
lthumb -2.93621 256.96
rfemur -4.5993 10.8614 9.32252
rtibia 38.2102
rfoot -20.6472 -14.6524
rtoes 9.07214
lfemur -12.9166 -0.012601 -17.6584
ltibia 37.6189
lfoot -15.219 6.41662
ltoes -7.37718
403
root 11.977 17.2473 15.2316 -3.58923 14.4843 3.01576
lowerback 5.44217 -0.876583 -5.15684
upperback -1.88151 -1.39613 3.33671
thorax -4.81916 -0.478325 6.54395
lowerneck -6.79562 -9.15053 -15.7728
upperneck 19.7194 -12.7292 11.1036
head 9.02445 -6.24488 4.98783
rclavicle -2.79292e-014 -2.22639e-014
rhumerus -5.71322 -15.3411 -49.0483
rradius 68.4238
rwrist -30.5224
rhand -19.9637 17.6522
rfingers 7.12502
rthumb 6.37487 -12.2319
lclavicle -2.79292e-014 -2.22639e-014
lhumerus -23.5495 51.7746 58.7955
lradius 30.767
lwrist -5.31912
lhand -27.6479 62.7525
lfingers 7.12502
lthumb -1.04587 267.27
rfemur -4.44844 10.99 9.01601
rtibia 38.6697
rfoot -20.4486 -15.2835
rtoes 9.41421
lfemur -12.5589 -0.0761036 -18.2205
ltibia 37.3897
lfoot -15.3581 6.38946
ltoes -7.06317
404
root 12.0721 17.2535 15.2898 -3.48969 14.6819 3.25733
lowerback 5.46718 -0.748493 -5.48441
upperback -1.88108 -1.2552 3.23628
thorax -4.8512 -0.398507 6.6136
lowerneck -6.61575 -9.21956 -15.993
upperneck 19.2663 -12.888 11.5942
head 8.90972 -6.30002 5.17558
rclavicle 3.97569e-014 6.36111e-015
rhumerus -6.62759 -15.3373 -48.4989
rradius 70.4311
rwrist -30.7441
rhand -19.9898 17.8255
rfingers 7.12502
rthumb 6.34965 -12.0593
lclavicle 3.97569e-014 6.36111e-015
lhumerus -25.5828 51.6499 56.3033
lradius 30.4179
lwrist -4.31178
lhand -24.8361 57.3582
lfingers 7.12502
lthumb 1.66985 87.3314
rfemur -4.4697 11.172 8.73622
rtibia 39.2782
rfoot -20.1266 -15.9806
rtoes 9.97896
lfemur -12.1861 -0.202344 -18.7664
ltibia 37.1574
lfoot -15.6726 6.2756
ltoes -6.18594
